<svg width="140" height="46" viewBox="0 0 140 46" fill="none" xmlns="http://www.w3.org/2000/svg">
<path d="M13.5 40.25C16.1667 39.4166 20.9 36.85 18.5 33.25C18.1069 32.7727 17.6164 32.2546 17.0513 31.75M17.0513 31.75C14.2624 29.2591 9.65874 27.0934 6 31.75C7.86756 34.0833 12.6924 37.35 17.0513 31.75ZM12.5 28.75C11.6667 26.25 8.2 21.55 1 22.75C1.66667 25.4167 4.9 30.35 12.5 28.75ZM9 23.75C9.66667 20.5833 9.2 14.15 2 13.75C1.5 16.4167 2.2 22.15 9 23.75ZM8.5 16.75C11 15.0833 14.5 10.55 8.5 5.75C6.5 7.58333 3.7 12.35 8.5 16.75Z" stroke="#09A350"/>
<path d="M54.0476 11.09C53.7236 10.466 53.2736 9.998 52.6976 9.686C52.1216 9.362 51.4556 9.2 50.6996 9.2C49.8716 9.2 49.1336 9.386 48.4856 9.758C47.8376 10.13 47.3276 10.658 46.9556 11.342C46.5956 12.026 46.4156 12.818 46.4156 13.718C46.4156 14.618 46.5956 15.416 46.9556 16.112C47.3276 16.796 47.8376 17.324 48.4856 17.696C49.1336 18.068 49.8716 18.254 50.6996 18.254C51.8156 18.254 52.7216 17.942 53.4176 17.318C54.1136 16.694 54.5396 15.848 54.6956 14.78H49.9976V13.142H56.8916V14.744C56.7596 15.716 56.4116 16.61 55.8476 17.426C55.2956 18.242 54.5696 18.896 53.6696 19.388C52.7816 19.868 51.7916 20.108 50.6996 20.108C49.5236 20.108 48.4496 19.838 47.4776 19.298C46.5056 18.746 45.7316 17.984 45.1556 17.012C44.5916 16.04 44.3096 14.942 44.3096 13.718C44.3096 12.494 44.5916 11.396 45.1556 10.424C45.7316 9.452 46.5056 8.696 47.4776 8.156C48.4616 7.604 49.5356 7.328 50.6996 7.328C52.0316 7.328 53.2136 7.658 54.2456 8.318C55.2896 8.966 56.0456 9.89 56.5136 11.09H54.0476ZM67.8974 10.082V20H65.8454V18.83C65.5214 19.238 65.0954 19.562 64.5674 19.802C64.0514 20.03 63.4994 20.144 62.9114 20.144C62.1314 20.144 61.4294 19.982 60.8054 19.658C60.1934 19.334 59.7074 18.854 59.3474 18.218C58.9994 17.582 58.8254 16.814 58.8254 15.914V10.082H60.8594V15.608C60.8594 16.496 61.0814 17.18 61.5254 17.66C61.9694 18.128 62.5754 18.362 63.3434 18.362C64.1114 18.362 64.7174 18.128 65.1614 17.66C65.6174 17.18 65.8454 16.496 65.8454 15.608V10.082H67.8974ZM79.6949 14.798C79.6949 15.17 79.6709 15.506 79.6229 15.806H72.0449C72.1049 16.598 72.3989 17.234 72.9269 17.714C73.4549 18.194 74.1029 18.434 74.8709 18.434C75.9749 18.434 76.7549 17.972 77.2109 17.048H79.4249C79.1249 17.96 78.5789 18.71 77.7869 19.298C77.0069 19.874 76.0349 20.162 74.8709 20.162C73.9229 20.162 73.0709 19.952 72.3149 19.532C71.5709 19.1 70.9829 18.5 70.5509 17.732C70.1309 16.952 69.9209 16.052 69.9209 15.032C69.9209 14.012 70.1249 13.118 70.5329 12.35C70.9529 11.57 71.5349 10.97 72.2789 10.55C73.0349 10.13 73.8989 9.92 74.8709 9.92C75.8069 9.92 76.6409 10.124 77.3729 10.532C78.1049 10.94 78.6749 11.516 79.0829 12.26C79.4909 12.992 79.6949 13.838 79.6949 14.798ZM77.5529 14.15C77.5409 13.394 77.2709 12.788 76.7429 12.332C76.2149 11.876 75.5609 11.648 74.7809 11.648C74.0729 11.648 73.4669 11.876 72.9629 12.332C72.4589 12.776 72.1589 13.382 72.0629 14.15H77.5529ZM85.3143 20.162C84.5343 20.162 83.8323 20.024 83.2083 19.748C82.5963 19.46 82.1103 19.076 81.7503 18.596C81.3903 18.104 81.1983 17.558 81.1743 16.958H83.2983C83.3343 17.378 83.5323 17.732 83.8923 18.02C84.2643 18.296 84.7263 18.434 85.2783 18.434C85.8543 18.434 86.2983 18.326 86.6103 18.11C86.9343 17.882 87.0963 17.594 87.0963 17.246C87.0963 16.874 86.9163 16.598 86.5563 16.418C86.2083 16.238 85.6503 16.04 84.8823 15.824C84.1383 15.62 83.5323 15.422 83.0643 15.23C82.5963 15.038 82.1883 14.744 81.8403 14.348C81.5043 13.952 81.3363 13.43 81.3363 12.782C81.3363 12.254 81.4923 11.774 81.8043 11.342C82.1163 10.898 82.5603 10.55 83.1363 10.298C83.7243 10.046 84.3963 9.92 85.1523 9.92C86.2803 9.92 87.1863 10.208 87.8703 10.784C88.5663 11.348 88.9383 12.122 88.9863 13.106H86.9343C86.8983 12.662 86.7183 12.308 86.3943 12.044C86.0703 11.78 85.6323 11.648 85.0803 11.648C84.5403 11.648 84.1263 11.75 83.8383 11.954C83.5503 12.158 83.4063 12.428 83.4063 12.764C83.4063 13.028 83.5023 13.25 83.6943 13.43C83.8863 13.61 84.1203 13.754 84.3963 13.862C84.6723 13.958 85.0803 14.084 85.6203 14.24C86.3403 14.432 86.9283 14.63 87.3843 14.834C87.8523 15.026 88.2543 15.314 88.5903 15.698C88.9263 16.082 89.1003 16.592 89.1123 17.228C89.1123 17.792 88.9563 18.296 88.6443 18.74C88.3323 19.184 87.8883 19.532 87.3123 19.784C86.7483 20.036 86.0823 20.162 85.3143 20.162ZM93.7235 11.756V17.246C93.7235 17.618 93.8075 17.888 93.9755 18.056C94.1555 18.212 94.4555 18.29 94.8755 18.29H96.1355V20H94.5155C93.5915 20 92.8835 19.784 92.3915 19.352C91.8995 18.92 91.6535 18.218 91.6535 17.246V11.756H90.4835V10.082H91.6535V7.616H93.7235V10.082H96.1355V11.756H93.7235Z" fill="#09A350"/>
<path d="M35.0803 30.756H33.2443V39H31.1743V30.756H30.0043V29.082H31.1743V28.38C31.1743 27.24 31.4743 26.412 32.0743 25.896C32.6863 25.368 33.6403 25.104 34.9363 25.104V26.814C34.3123 26.814 33.8743 26.934 33.6223 27.174C33.3703 27.402 33.2443 27.804 33.2443 28.38V29.082H35.0803V30.756ZM36.2148 33.996C36.2148 33 36.4188 32.118 36.8268 31.35C37.2468 30.582 37.8108 29.988 38.5188 29.568C39.2388 29.136 40.0308 28.92 40.8948 28.92C41.6748 28.92 42.3528 29.076 42.9288 29.388C43.5168 29.688 43.9848 30.066 44.3328 30.522V29.082H46.4028V39H44.3328V37.524C43.9848 37.992 43.5108 38.382 42.9108 38.694C42.3108 39.006 41.6268 39.162 40.8588 39.162C40.0068 39.162 39.2268 38.946 38.5188 38.514C37.8108 38.07 37.2468 37.458 36.8268 36.678C36.4188 35.886 36.2148 34.992 36.2148 33.996ZM44.3328 34.032C44.3328 33.348 44.1888 32.754 43.9008 32.25C43.6248 31.746 43.2588 31.362 42.8028 31.098C42.3468 30.834 41.8548 30.702 41.3268 30.702C40.7988 30.702 40.3068 30.834 39.8508 31.098C39.3948 31.35 39.0228 31.728 38.7348 32.232C38.4588 32.724 38.3208 33.312 38.3208 33.996C38.3208 34.68 38.4588 35.28 38.7348 35.796C39.0228 36.312 39.3948 36.708 39.8508 36.984C40.3188 37.248 40.8108 37.38 41.3268 37.38C41.8548 37.38 42.3468 37.248 42.8028 36.984C43.2588 36.72 43.6248 36.336 43.9008 35.832C44.1888 35.316 44.3328 34.716 44.3328 34.032ZM52.932 37.164L55.74 29.082H57.918L54.138 39H51.69L47.928 29.082H50.124L52.932 37.164ZM63.7711 39.162C62.8351 39.162 61.9891 38.952 61.2331 38.532C60.4771 38.1 59.8831 37.5 59.4511 36.732C59.0191 35.952 58.8031 35.052 58.8031 34.032C58.8031 33.024 59.0251 32.13 59.4691 31.35C59.9131 30.57 60.5191 29.97 61.2871 29.55C62.0551 29.13 62.9131 28.92 63.8611 28.92C64.8091 28.92 65.6671 29.13 66.4351 29.55C67.2031 29.97 67.8091 30.57 68.2531 31.35C68.6971 32.13 68.9191 33.024 68.9191 34.032C68.9191 35.04 68.6911 35.934 68.2351 36.714C67.7791 37.494 67.1551 38.1 66.3631 38.532C65.5831 38.952 64.7191 39.162 63.7711 39.162ZM63.7711 37.38C64.2991 37.38 64.7911 37.254 65.2471 37.002C65.7151 36.75 66.0931 36.372 66.3811 35.868C66.6691 35.364 66.8131 34.752 66.8131 34.032C66.8131 33.312 66.6751 32.706 66.3991 32.214C66.1231 31.71 65.7571 31.332 65.3011 31.08C64.8451 30.828 64.3531 30.702 63.8251 30.702C63.2971 30.702 62.8051 30.828 62.3491 31.08C61.9051 31.332 61.5511 31.71 61.2871 32.214C61.0231 32.706 60.8911 33.312 60.8911 34.032C60.8911 35.1 61.1611 35.928 61.7011 36.516C62.2531 37.092 62.9431 37.38 63.7711 37.38ZM79.9297 29.082V39H77.8777V37.83C77.5537 38.238 77.1277 38.562 76.5997 38.802C76.0837 39.03 75.5317 39.144 74.9437 39.144C74.1637 39.144 73.4617 38.982 72.8377 38.658C72.2257 38.334 71.7397 37.854 71.3797 37.218C71.0317 36.582 70.8577 35.814 70.8577 34.914V29.082H72.8917V34.608C72.8917 35.496 73.1137 36.18 73.5577 36.66C74.0017 37.128 74.6077 37.362 75.3757 37.362C76.1437 37.362 76.7497 37.128 77.1937 36.66C77.6497 36.18 77.8777 35.496 77.8777 34.608V29.082H79.9297ZM84.6891 30.522C84.9891 30.018 85.3851 29.628 85.8771 29.352C86.3811 29.064 86.9751 28.92 87.6591 28.92V31.044H87.1371C86.3331 31.044 85.7211 31.248 85.3011 31.656C84.8931 32.064 84.6891 32.772 84.6891 33.78V39H82.6371V29.082H84.6891V30.522ZM90.5893 27.768C90.2173 27.768 89.9053 27.642 89.6533 27.39C89.4013 27.138 89.2753 26.826 89.2753 26.454C89.2753 26.082 89.4013 25.77 89.6533 25.518C89.9053 25.266 90.2173 25.14 90.5893 25.14C90.9493 25.14 91.2553 25.266 91.5073 25.518C91.7593 25.77 91.8853 26.082 91.8853 26.454C91.8853 26.826 91.7593 27.138 91.5073 27.39C91.2553 27.642 90.9493 27.768 90.5893 27.768ZM91.5973 29.082V39H89.5453V29.082H91.5973ZM96.6854 30.756V36.246C96.6854 36.618 96.7694 36.888 96.9374 37.056C97.1174 37.212 97.4174 37.29 97.8374 37.29H99.0974V39H97.4774C96.5534 39 95.8454 38.784 95.3534 38.352C94.8614 37.92 94.6154 37.218 94.6154 36.246V30.756H93.4454V29.082H94.6154V26.616H96.6854V29.082H99.0974V30.756H96.6854ZM110.079 33.798C110.079 34.17 110.055 34.506 110.007 34.806H102.429C102.489 35.598 102.783 36.234 103.311 36.714C103.839 37.194 104.487 37.434 105.255 37.434C106.359 37.434 107.139 36.972 107.595 36.048H109.809C109.509 36.96 108.963 37.71 108.171 38.298C107.391 38.874 106.419 39.162 105.255 39.162C104.307 39.162 103.455 38.952 102.699 38.532C101.955 38.1 101.367 37.5 100.935 36.732C100.515 35.952 100.305 35.052 100.305 34.032C100.305 33.012 100.509 32.118 100.917 31.35C101.337 30.57 101.919 29.97 102.663 29.55C103.419 29.13 104.283 28.92 105.255 28.92C106.191 28.92 107.025 29.124 107.757 29.532C108.489 29.94 109.059 30.516 109.467 31.26C109.875 31.992 110.079 32.838 110.079 33.798ZM107.937 33.15C107.925 32.394 107.655 31.788 107.127 31.332C106.599 30.876 105.945 30.648 105.165 30.648C104.457 30.648 103.851 30.876 103.347 31.332C102.843 31.776 102.543 32.382 102.447 33.15H107.937Z" fill="#09A350"/>
<path d="M126.819 40.25C124.152 39.4167 119.419 36.85 121.819 33.25C122.212 32.7727 122.703 32.2547 123.268 31.75M123.268 31.75C126.057 29.2591 130.661 27.0934 134.32 31.75C132.452 34.0833 127.627 37.35 123.268 31.75ZM127.819 28.75C128.653 26.25 132.12 21.55 139.32 22.75C138.654 25.4167 135.42 30.35 127.819 28.75ZM131.32 23.75C130.653 20.5833 131.12 14.15 138.32 13.75C138.82 16.4167 138.12 22.15 131.32 23.75ZM131.82 16.75C129.32 15.0833 125.819 10.55 131.82 5.75C133.82 7.58333 136.62 12.35 131.82 16.75Z" stroke="#09A350"/>
</svg>
